<?xml version="1.0" standalone="no"?>
<!DOCTYPE svg PUBLIC "-//W3C//DTD SVG 20010904//EN"
 "http://www.w3.org/TR/2001/REC-SVG-20010904/DTD/svg10.dtd">
<svg version="1.0" xmlns="http://www.w3.org/2000/svg"
 width="512.000000pt" height="512.000000pt" viewBox="0 0 512.000000 512.000000"
 preserveAspectRatio="xMidYMid meet">

<g transform="translate(0.000000,512.000000) scale(0.100000,-0.100000)"
fill="#000000" stroke="none">
<path d="M1406 5028 c2 -24 11 -155 19 -293 9 -137 20 -297 25 -355 6 -58 10
-205 10 -327 0 -205 -2 -225 -20 -255 -20 -32 -20 -52 -20 -1028 -1 -547 -5
-1080 -10 -1185 -6 -104 -14 -269 -19 -365 -5 -96 -14 -267 -20 -380 -6 -113
-15 -279 -21 -370 -5 -91 -11 -212 -12 -270 l-3 -105 405 0 405 0 5 820 5 820
36 65 c20 36 84 154 144 263 59 108 112 197 119 197 7 0 18 -24 25 -52 7 -29
17 -66 22 -83 35 -117 54 -181 75 -260 31 -109 36 -127 67 -235 29 -99 125
-431 137 -475 5 -16 27 -95 50 -175 23 -80 45 -158 50 -175 4 -16 27 -95 50
-175 23 -80 46 -158 50 -175 8 -28 106 -370 117 -408 5 -16 30 -17 340 -17
l335 0 -5 22 c-8 36 -45 163 -83 288 -62 201 -111 363 -129 425 -9 33 -29 101
-44 150 -16 50 -36 117 -46 150 -10 33 -24 80 -32 105 -8 25 -21 68 -28 95 -7
28 -26 88 -40 135 -15 47 -37 121 -50 165 -13 44 -51 172 -85 285 -34 113 -70
237 -81 275 -11 39 -29 97 -40 130 -11 33 -36 134 -56 225 -19 91 -40 185 -45
210 -6 25 -18 102 -27 173 l-16 127 94 193 c52 105 129 264 171 352 42 88 122
252 177 365 56 113 128 261 161 330 33 69 130 269 216 444 107 219 153 322
145 327 -14 8 -147 25 -327 40 -167 14 -456 4 -477 -17 -7 -8 -37 -58 -66
-112 -88 -164 -111 -207 -119 -217 -4 -5 -33 -59 -65 -120 -32 -60 -79 -148
-105 -195 -26 -47 -80 -146 -120 -220 -40 -74 -97 -178 -126 -230 -28 -52 -71
-131 -94 -175 -23 -44 -46 -84 -50 -90 -4 -5 -33 -59 -65 -120 -85 -163 -116
-215 -126 -215 -5 0 -9 358 -9 870 l0 870 -389 0 -389 0 4 -42z"/>
</g>
</svg>
